<?xml version="1.0" encoding="utf-8"?>
<!-- Generator: Adobe Illustrator 22.1.0, SVG Export Plug-In . SVG Version: 6.00 Build 0)  -->
<svg version="1.1" id="Capa_1" xmlns="http://www.w3.org/2000/svg" xmlns:xlink="http://www.w3.org/1999/xlink" x="0px" y="0px"
	 viewBox="0 0 15.1 13" style="enable-background:new 0 0 15.1 13;" xml:space="preserve">
<style type="text/css">
	.st0{clip-path:url(#SVGID_2_);fill:#0D1F33;}
	.st1{clip-path:url(#SVGID_2_);fill:#FFFFFF;}
	.st2{clip-path:url(#SVGID_2_);fill:#FFC929;}
</style>
<g>
	<defs>
		<rect id="SVGID_1_" width="15.1" height="13"/>
	</defs>
	<clipPath id="SVGID_2_">
		<use xlink:href="#SVGID_1_"  style="overflow:visible;"/>
	</clipPath>
	<path class="st0" d="M1.6,0C1.6,0,0,0,0,1.6v9.8c0,0,0,1.6,1.6,1.6h11.8c0,0,1.6,0,1.6-1.6V1.6c0,0,0-1.6-1.6-1.6H1.6z"/>
	<path class="st1" d="M4.4,6.3c0,0-1.6,0-1.6,1.6v2.2c0,0,0,1.6,1.6,1.6h0.4c0,0,1.6,0,1.6-1.6V7.9c0,0,0-1.6-1.6-1.6H4.4z"/>
	<path class="st2" d="M10.3,2.2c0,0-1.6,0-1.6,1.6v6.3c0,0,0,1.6,1.6,1.6h0.4c0,0,1.6,0,1.6-1.6V3.8c0,0,0-1.6-1.6-1.6H10.3z"/>
</g>
</svg>
